<?xml version="1.0" standalone="no"?>
<!DOCTYPE svg PUBLIC "-//W3C//DTD SVG 20010904//EN"
 "http://www.w3.org/TR/2001/REC-SVG-20010904/DTD/svg10.dtd">
<svg version="1.0" xmlns="http://www.w3.org/2000/svg"
 width="1200.000000pt" height="1200.000000pt" viewBox="0 0 1200.000000 1200.000000"
 preserveAspectRatio="xMidYMid meet">

<g transform="translate(0.000000,1200.000000) scale(0.100000,-0.100000)"
fill="#000000" stroke="none">
<path d="M11795 11760 c-559 -60 -1051 -407 -1295 -915 -56 -117 -101 -245
-132 -382 l-22 -98 -6 -2105 c-6 -2315 -2 -2151 -66 -2390 -163 -604 -655
-1090 -1261 -1245 -348 -89 -741 -66 -1067 62 -398 157 -722 442 -919 812
l-44 82 -28 -113 c-15 -62 -51 -186 -81 -276 l-54 -163 0 -799 0 -799 57 -34
c370 -220 803 -368 1273 -434 178 -25 672 -25 850 0 789 111 1445 438 1992
993 512 520 819 1141 941 1904 l21 135 3 2888 3 2887 -47 -1 c-27 -1 -79 -5
-118 -9z"/>
<path d="M8245 9719 c-763 -79 -1459 -401 -2009 -929 -394 -379 -602 -739
-829 -1435 -109 -334 -133 -450 -187 -890 -72 -591 -141 -821 -334 -1110 l-66
-98 0 -999 0 -999 23 6 c43 13 272 138 391 213 527 334 945 797 1224 1357 173
349 226 549 307 1166 64 492 111 723 191 935 222 597 687 1009 1279 1134 130
28 411 38 551 20 212 -26 473 -111 646 -211 233 -133 450 -332 600 -549 16
-24 17 34 17 1022 l1 1047 -47 22 c-353 159 -700 255 -1065 294 -158 16 -551
19 -693 4z"/>
<path d="M4820 8439 l0 -1002 37 -51 c20 -28 61 -91 90 -140 30 -52 54 -83 57
-75 3 8 12 43 21 79 123 498 390 1022 727 1427 l68 82 -121 108 c-229 206
-483 380 -739 509 -70 35 -131 64 -134 64 -3 0 -6 -451 -6 -1001z"/>
<path d="M6771 4917 c-299 -715 -881 -1367 -1559 -1747 l-110 -61 -22 -62
c-39 -110 -117 -261 -189 -370 l-71 -105 2 -1002 3 -1002 120 61 c471 237 889
589 1209 1021 277 373 486 838 586 1305 62 292 63 306 67 1120 2 413 3 789 1
837 l-3 86 -34 -81z"/>
</g>
</svg>
